<?xml version="1.0" encoding="UTF-8"?>
<svg xmlns="http://www.w3.org/2000/svg" xmlns:xlink="http://www.w3.org/1999/xlink" width="459px" height="78px" viewBox="0 0 459 78" version="1.1">
<defs>
<filter id="alpha" filterUnits="objectBoundingBox" x="0%" y="0%" width="100%" height="100%">
  <feColorMatrix type="matrix" in="SourceGraphic" values="0 0 0 0 1 0 0 0 0 1 0 0 0 0 1 0 0 0 1 0"/>
</filter>
<mask id="mask0">
  <g filter="url(#alpha)">
<rect x="0" y="0" width="459" height="78" style="fill:rgb(0%,0%,0%);fill-opacity:0.74902;stroke:none;"/>
  </g>
</mask>
<clipPath id="clip1">
  <rect x="0" y="0" width="459" height="78"/>
</clipPath>
<g id="surface5" clip-path="url(#clip1)">
<path style=" stroke:none;fill-rule:evenodd;fill:rgb(38.823529%,37.254902%,78.039216%);fill-opacity:1;" d="M 33 3 L 39 3 C 42.3125 3 45 5.6875 45 9 L 45 72 C 45 75.3125 42.3125 78 39 78 L 33 78 C 29.6875 78 27 75.3125 27 72 L 27 9 C 27 5.6875 29.6875 3 33 3 Z M 33 3 "/>
</g>
<mask id="mask1">
  <g filter="url(#alpha)">
<rect x="0" y="0" width="459" height="78" style="fill:rgb(0%,0%,0%);fill-opacity:0.501961;stroke:none;"/>
  </g>
</mask>
<clipPath id="clip2">
  <rect x="0" y="0" width="459" height="78"/>
</clipPath>
<g id="surface8" clip-path="url(#clip2)">
<path style=" stroke:none;fill-rule:evenodd;fill:rgb(38.823529%,37.254902%,78.039216%);fill-opacity:1;" d="M 60 3 L 66 3 C 69.3125 3 72 5.6875 72 9 L 72 72 C 72 75.3125 69.3125 78 66 78 L 60 78 C 56.6875 78 54 75.3125 54 72 L 54 9 C 54 5.6875 56.6875 3 60 3 Z M 60 3 "/>
</g>
</defs>
<g id="surface1">
<path style=" stroke:none;fill-rule:nonzero;fill:rgb(100%,100%,100%);fill-opacity:1;" d="M 133.679688 75 L 133.679688 58.96875 L 139.441406 52.632812 L 152.785156 75 L 169.105469 75 L 150.191406 43.703125 L 169.199219 22.585938 L 151.441406 22.585938 L 133.679688 41.496094 L 133.679688 2.328125 L 119.28125 2.328125 L 119.28125 75 Z M 191.761719 76.152344 C 198.289062 76.152344 203.535156 74.136719 207.503906 70.105469 L 207.503906 75 L 220.945312 75 L 220.945312 40.441406 C 220.945312 36.664062 220 33.351562 218.113281 30.503906 C 216.222656 27.652344 213.582031 25.433594 210.191406 23.832031 C 206.800781 22.234375 202.894531 21.433594 198.480469 21.433594 C 192.910156 21.433594 188.03125 22.714844 183.839844 25.273438 C 179.648438 27.832031 176.785156 31.285156 175.246094 35.640625 L 186.769531 41.113281 C 187.613281 38.875 189.097656 36.9375 191.039062 35.542969 C 192.988281 34.132812 195.25 33.433594 197.808594 33.433594 C 200.496094 33.433594 202.621094 34.105469 204.191406 35.449219 C 205.761719 36.792969 206.542969 38.457031 206.542969 40.441406 L 206.542969 41.878906 L 192.046875 44.183594 C 185.777344 45.207031 181.105469 47.160156 178.03125 50.039062 C 174.960938 52.921875 173.425781 56.566406 173.425781 60.984375 C 173.425781 65.722656 175.074219 69.433594 178.367188 72.121094 C 181.664062 74.808594 186.128906 76.152344 191.761719 76.152344 Z M 194.640625 65.59375 C 192.847656 65.59375 191.34375 65.140625 190.128906 64.246094 C 188.914062 63.351562 188.304688 62.101562 188.304688 60.503906 C 188.304688 58.777344 188.847656 57.445312 189.9375 56.519531 C 191.023438 55.589844 192.589844 54.9375 194.640625 54.550781 L 206.542969 52.441406 L 206.542969 54.070312 C 206.542969 57.273438 205.453125 59.992188 203.28125 62.230469 C 201.105469 64.472656 198.226562 65.59375 194.640625 65.59375 Z M 245.902344 75 L 245.902344 44.375 C 245.902344 41.367188 246.800781 38.953125 248.59375 37.128906 C 250.382812 35.304688 252.6875 34.390625 255.503906 34.390625 C 258.320312 34.390625 260.625 35.304688 262.414062 37.128906 C 264.207031 38.953125 265.105469 41.367188 265.105469 44.375 L 265.105469 75 L 279.503906 75 L 279.503906 41.304688 C 279.503906 37.335938 278.671875 33.863281 277.007812 30.886719 C 275.390625 27.957031 272.976562 25.546875 270.046875 23.929688 C 267.070312 22.261719 263.597656 21.433594 259.632812 21.433594 C 256.300781 21.433594 253.363281 22.054688 250.800781 23.304688 C 248.277344 24.515625 246.21875 26.523438 244.945312 29.015625 L 244.945312 22.585938 L 231.503906 22.585938 L 231.503906 75 Z M 318.382812 76.152344 C 323.503906 76.152344 328.078125 74.9375 332.113281 72.503906 C 336.109375 70.105469 339.40625 66.695312 341.664062 62.617188 C 344 58.453125 345.167969 53.847656 345.167969 48.792969 C 345.167969 43.671875 343.984375 39.046875 341.617188 34.921875 C 339.320312 30.867188 336.011719 27.476562 332.015625 25.078125 C 327.984375 22.648438 323.472656 21.433594 318.480469 21.433594 C 312.144531 21.433594 307.117188 23.289062 303.40625 27 L 303.40625 2.328125 L 289.007812 2.328125 L 289.007812 75 L 302.449219 75 L 302.449219 70.007812 C 304.304688 71.992188 306.625 73.511719 309.40625 74.566406 C 312.277344 75.640625 315.320312 76.175781 318.382812 76.152344 Z M 316.65625 63.191406 C 312.753906 63.191406 309.566406 61.863281 307.105469 59.207031 C 304.640625 56.554688 303.40625 53.078125 303.40625 48.792969 C 303.40625 44.566406 304.636719 41.113281 307.105469 38.425781 C 309.566406 35.734375 312.753906 34.390625 316.65625 34.390625 C 320.625 34.390625 323.886719 35.75 326.449219 38.472656 C 329.007812 41.191406 330.289062 44.632812 330.289062 48.792969 C 330.289062 53.015625 329.007812 56.472656 326.449219 59.160156 C 323.890625 61.847656 320.625 63.191406 316.65625 63.191406 Z M 369.839844 76.152344 C 376.367188 76.152344 381.613281 74.136719 385.585938 70.105469 L 385.585938 75 L 399.023438 75 L 399.023438 40.441406 C 399.023438 36.664062 398.078125 33.351562 396.191406 30.503906 C 394.300781 27.652344 391.660156 25.433594 388.273438 23.832031 C 384.882812 22.234375 380.976562 21.433594 376.558594 21.433594 C 370.992188 21.433594 366.109375 22.714844 361.921875 25.273438 C 357.730469 27.832031 354.863281 31.285156 353.328125 35.640625 L 364.847656 41.113281 C 365.691406 38.875 367.179688 36.9375 369.121094 35.542969 C 371.070312 34.132812 373.328125 33.433594 375.886719 33.433594 C 378.574219 33.433594 380.703125 34.105469 382.273438 35.449219 C 383.839844 36.792969 384.625 38.457031 384.625 40.441406 L 384.625 41.878906 L 370.128906 44.183594 C 363.859375 45.207031 359.183594 47.160156 356.113281 50.039062 C 353.039062 52.921875 351.503906 56.566406 351.503906 60.984375 C 351.503906 65.722656 353.152344 69.433594 356.449219 72.121094 C 359.746094 74.808594 364.210938 76.152344 369.839844 76.152344 Z M 372.71875 65.59375 C 370.929688 65.59375 369.421875 65.140625 368.207031 64.246094 C 366.992188 63.351562 366.382812 62.101562 366.382812 60.503906 C 366.382812 58.777344 366.925781 57.445312 368.015625 56.519531 C 369.105469 55.589844 370.671875 54.9375 372.71875 54.550781 L 384.625 52.441406 L 384.625 54.070312 C 384.625 57.273438 383.535156 59.992188 381.359375 62.230469 C 379.183594 64.472656 376.304688 65.59375 372.71875 65.59375 Z M 423.984375 75 L 423.984375 44.375 C 423.984375 41.367188 424.882812 38.953125 426.671875 37.128906 C 428.464844 35.304688 430.765625 34.390625 433.585938 34.390625 C 436.402344 34.390625 438.703125 35.304688 440.496094 37.128906 C 442.285156 38.953125 443.183594 41.367188 443.183594 44.375 L 443.183594 75 L 457.585938 75 L 457.585938 41.304688 C 457.585938 37.335938 456.753906 33.863281 455.089844 30.886719 C 453.46875 27.957031 451.058594 25.546875 448.128906 23.929688 C 445.152344 22.261719 441.679688 21.433594 437.710938 21.433594 C 434.382812 21.433594 431.441406 22.054688 428.878906 23.304688 C 426.355469 24.515625 424.300781 26.523438 423.023438 29.015625 L 423.023438 22.585938 L 409.585938 22.585938 L 409.585938 75 Z M 423.984375 75 "/>
<path style=" stroke:none;fill-rule:evenodd;fill:rgb(38.823529%,37.254902%,78.039216%);fill-opacity:1;" d="M 6 3 L 12 3 C 15.3125 3 18 5.6875 18 9 L 18 72 C 18 75.3125 15.3125 78 12 78 L 6 78 C 2.6875 78 0 75.3125 0 72 L 0 9 C 0 5.6875 2.6875 3 6 3 Z M 6 3 "/>
<use xlink:href="#surface5" mask="url(#mask0)"/>
<use xlink:href="#surface8" mask="url(#mask1)"/>
</g>
</svg>
